<svg version="1.2" xmlns="http://www.w3.org/2000/svg" viewBox="0 0 128 160" width="128" height="160">
	<title>close</title>
	<style>
		tspan { white-space:pre } 
		.s0 { fill: #000000 } 
	</style>
	<path class="s0" d="m75.4 64l50.2-50.2c1.6-1.6 2.4-3.6 2.4-5.7 0-2.2-0.8-4.2-2.4-5.7-1.5-1.6-3.5-2.4-5.7-2.4-2.1 0-4.1 0.8-5.7 2.4l-50.2 50.2-50.2-50.2c-1.6-1.6-3.6-2.4-5.7-2.4-2.2 0-4.2 0.8-5.7 2.4-1.6 1.5-2.4 3.5-2.4 5.7 0 2.1 0.8 4.1 2.4 5.7l50.2 50.2-50.2 50.2c-1.6 1.6-2.4 3.6-2.4 5.7 0 2.2 0.8 4.2 2.4 5.7 1.5 1.6 3.5 2.4 5.7 2.4 2.1 0 4.1-0.8 5.7-2.4l50.2-50.2 50.2 50.2c1.6 1.6 3.6 2.4 5.7 2.4 2.2 0 4.2-0.8 5.7-2.4 1.6-1.5 2.4-3.5 2.4-5.7 0-2.1-0.8-4.1-2.4-5.7z"/>
</svg>