<svg xmlns="http://www.w3.org/2000/svg" xmlns:xlink="http://www.w3.org/1999/xlink" version="1.1" x="0px" y="0px" viewBox="0 0 512 640" enable-background="new 0 0 512 512" xml:space="preserve"><g><path d="M316.12,467.725c-0.647,0-1.299-0.079-1.94-0.239l-220.91-55.23c-3.562-0.891-6.06-4.09-6.06-7.761V36.315   c0-2.463,1.135-4.79,3.077-6.306c1.94-1.517,4.471-2.053,6.863-1.456l220.91,55.23c3.562,0.891,6.06,4.09,6.06,7.761v368.18   c0,2.463-1.135,4.79-3.077,6.306C319.623,467.14,317.886,467.725,316.12,467.725z M103.21,398.249l204.91,51.23V97.791   L103.21,46.562V398.249z"/></g><g><path d="M389.75,412.495h-73.63c-4.418,0-8-3.582-8-8V97.791L93.27,44.076c-3.92-0.98-6.493-4.729-6-8.739   c0.494-4.01,3.9-7.022,7.94-7.022h294.54c4.418,0,8,3.582,8,8v368.18C397.75,408.913,394.168,412.495,389.75,412.495z    M324.12,396.495h57.63V44.315H160.192l157.868,39.469c3.562,0.891,6.06,4.09,6.06,7.761V396.495z"/></g><g><rect x="131.844" y="182.49" transform="matrix(0.9701 0.2426 -0.2426 0.9701 52.345 -44.196)" width="147.641" height="16"/></g><g><rect x="131.844" y="240.02" transform="matrix(0.9701 0.2426 -0.2426 0.9701 66.299 -42.4781)" width="147.641" height="16"/></g><g><rect x="131.844" y="297.55" transform="matrix(0.9701 0.2426 -0.2426 0.9701 80.2541 -40.7606)" width="147.641" height="16"/></g><text x="0" y="527" fill="#000000" font-size="5px" font-weight="bold" font-family="'Helvetica Neue', Helvetica, Arial-Unicode, Arial, Sans-serif">Created by Kharisma Mulyana</text><text x="0" y="532" fill="#000000" font-size="5px" font-weight="bold" font-family="'Helvetica Neue', Helvetica, Arial-Unicode, Arial, Sans-serif">from the Noun Project</text></svg>