<svg xmlns="http://www.w3.org/2000/svg" version="1.1" viewBox="-5.0 -10.0 110.0 135.0">
 <path d="m30 81.5h30c6.3477-0.007812 11.492-5.1523 11.5-11.5v-24.441c0-0.82812-0.67188-1.5-1.5-1.5s-1.5 0.67188-1.5 1.5v24.441c-0.003906 4.6914-3.8086 8.4961-8.5 8.5h-30c-4.6914-0.003906-8.4961-3.8086-8.5-8.5v-30c0.003906-4.6914 3.8086-8.4961 8.5-8.5h24.441c0.82812 0 1.5-0.67188 1.5-1.5s-0.67188-1.5-1.5-1.5h-24.441c-6.3477 0.007812-11.492 5.1523-11.5 11.5v30c0.007812 6.3477 5.1523 11.492 11.5 11.5z"/>
 <path d="m79.605 20.406c-1.207-1.2266-2.8555-1.9141-4.5781-1.9141h-0.019532c-1.7266-0.003907-3.3867 0.68359-4.6094 1.9062l-26.457 26.461c-0.28125 0.28125-0.44141 0.66406-0.44141 1.0625v7.0781c0 0.82812 0.67188 1.5 1.5 1.5h7.0781c0.39844 0 0.78125-0.16016 1.0625-0.44141l26.461-26.457 0.003907-0.003906v-0.003906c2.5078-2.5469 2.5078-6.6406 0-9.1875zm-28.145 33.094h-4.9609v-4.9609l21.426-21.422 4.957 4.957zm26.016-26.02-2.4727 2.4727-4.957-4.957 2.4727-2.4766c0.66016-0.66016 1.5586-1.0312 2.4922-1.0273h0.007812c0.92188-0.003907 1.8047 0.36719 2.4531 1.0234 1.3555 1.375 1.3594 3.5859 0.003906 4.9648z"/>
<text x="0.0" y="117.5" font-size="5.0" font-weight="bold" font-family="Arbeit Regular, Helvetica, Arial-Unicode, Arial, Sans-serif" fill="#000000">Created by ridhobadal</text><text x="0.0" y="122.5" font-size="5.0" font-weight="bold" font-family="Arbeit Regular, Helvetica, Arial-Unicode, Arial, Sans-serif" fill="#000000">from Noun Project</text></svg>