<svg version="1.2" xmlns="http://www.w3.org/2000/svg" viewBox="0 0 60 60" width="60" height="60"><style></style><path  d="m30 60c12.1 0 23.1-7.3 27.7-18.5 4.7-11.2 2.1-24.1-6.5-32.7-8.6-8.6-21.5-11.2-32.7-6.5-11.2 4.6-18.5 15.6-18.5 27.7 0 3.9 0.8 7.8 2.3 11.5 1.5 3.6 3.7 6.9 6.5 9.7 2.8 2.8 6.1 5 9.7 6.5 3.7 1.5 7.6 2.3 11.5 2.3zm0-58c11.3 0 21.5 6.8 25.9 17.3 4.3 10.4 1.9 22.5-6.1 30.5-8 8-20.1 10.4-30.5 6.1-10.5-4.4-17.3-14.6-17.3-25.9 0-3.7 0.7-7.3 2.1-10.7 1.4-3.4 3.5-6.5 6.1-9.1 2.6-2.6 5.7-4.7 9.1-6.1 3.4-1.4 7-2.1 10.7-2.1z"/><path  d="m12 31h17v17q0 0.4 0.3 0.7 0.3 0.3 0.7 0.3 0.4 0 0.7-0.3 0.3-0.3 0.3-0.7v-17h17q0.4 0 0.7-0.3 0.3-0.3 0.3-0.7 0-0.4-0.3-0.7-0.3-0.3-0.7-0.3h-17v-17q0-0.4-0.3-0.7-0.3-0.3-0.7-0.3-0.4 0-0.7 0.3-0.3 0.3-0.3 0.7v17h-17q-0.4 0-0.7 0.3-0.3 0.3-0.3 0.7 0 0.4 0.3 0.7 0.3 0.3 0.7 0.3z"/></svg>