<svg version="1.2" xmlns="http://www.w3.org/2000/svg" viewBox="0 0 54 76" width="54" height="76"><style></style><path  d="m35.6 5.6c-0.5 0-0.8 0.4-0.8 0.8 0 0.4 0.3 0.8 0.8 0.8h12.8c0.9 0 1.8 0.4 2.4 1 0.6 0.7 1 1.5 1 2.5v59.8c0 0.9-0.4 1.8-1 2.4-0.6 0.7-1.5 1-2.4 1h-42.8c-0.9 0-1.8-0.3-2.4-1-0.6-0.6-1-1.5-1-2.4v-59.8c0-1 0.4-1.8 1-2.5 0.6-0.6 1.5-1 2.4-1h12.8c0.5 0 0.8-0.4 0.8-0.8 0-0.4-0.3-0.8-0.8-0.8h-12.8c-1.3 0-2.6 0.6-3.5 1.5-0.9 0.9-1.5 2.2-1.5 3.6v59.8c0 1.3 0.6 2.6 1.5 3.5 0.9 0.9 2.2 1.5 3.5 1.5h42.8c1.3 0 2.6-0.6 3.5-1.5 0.9-0.9 1.5-2.2 1.5-3.5v-59.8c0-1.4-0.6-2.7-1.5-3.6-0.9-0.9-2.2-1.5-3.5-1.5z"/><path  d="m6.8 16.5h10.9c0.4 0 0.8 0.4 0.8 0.8v9.3c0 0.4-0.4 0.8-0.8 0.8h-10.9c-0.4 0-0.8-0.4-0.8-0.8v-9.3c0-0.4 0.4-0.8 0.8-0.8zm10.1 1.6h-9.3v7.7h9.3z"/><path  d="m6.8 35.1h10.9c0.4 0 0.8 0.4 0.8 0.8v9.3c0 0.5-0.4 0.8-0.8 0.8h-10.9c-0.4 0-0.8-0.3-0.8-0.8v-9.3c0-0.4 0.4-0.8 0.8-0.8zm10.1 1.6h-9.3v7.7h9.3z"/><path  d="m6.8 53.8h10.9c0.4 0 0.8 0.3 0.8 0.7v9.4c0 0.4-0.4 0.7-0.8 0.7h-10.9c-0.4 0-0.8-0.3-0.8-0.7v-9.4c0-0.4 0.4-0.7 0.8-0.7zm10.1 1.5h-9.3v7.8h9.3z"/><path  d="m10.1 21.8c-0.2-0.4-0.7-0.5-1-0.3-0.4 0.2-0.5 0.7-0.3 1.1l0.8 1.4c0.2 0.4 0.7 0.6 1.1 0.3 1.4-0.8 3.4-2.4 4.8-3.4 0.4-0.3 0.4-0.8 0.2-1.1-0.3-0.4-0.7-0.5-1.1-0.2l-4.1 2.9z"/><path  d="m10.1 40.4c-0.2-0.3-0.7-0.5-1-0.2-0.4 0.2-0.5 0.6-0.3 1l0.8 1.5c0.3 0.3 0.6 0.5 1.1 0.3 1.4-0.9 3.4-2.5 4.8-3.5 0.4-0.3 0.4-0.8 0.2-1.1-0.3-0.4-0.7-0.4-1.1-0.2l-4.1 2.9z"/><path  d="m10.1 59.1c-0.2-0.4-0.7-0.5-1-0.3-0.4 0.2-0.5 0.7-0.3 1.1l0.8 1.4c0.2 0.4 0.7 0.5 1.1 0.3 1.4-0.8 3.4-2.5 4.8-3.5 0.4-0.2 0.4-0.7 0.2-1.1-0.3-0.3-0.7-0.4-1.1-0.2l-4.1 3z"/><path  d="m25.4 19.6h20.2c0.7 0 1.3 0.3 1.7 0.7 0.9 0.9 0.9 2.4 0 3.3-0.4 0.4-1 0.7-1.7 0.7h-20.2c-0.6 0-1.2-0.3-1.6-0.7-0.9-0.9-0.9-2.4 0-3.3 0.4-0.4 1-0.7 1.6-0.7zm20.2 1.6h-20.2q-0.3 0-0.5 0.2c-0.3 0.3-0.3 0.8 0 1.1q0.2 0.2 0.5 0.2h20.2q0.4 0 0.6-0.2c0.3-0.3 0.3-0.8 0-1.1q-0.2-0.2-0.6-0.2z"/><path  d="m25.4 38.2h20.2c0.7 0 1.3 0.3 1.7 0.7 0.9 0.9 0.9 2.4 0 3.3-0.4 0.4-1 0.7-1.7 0.7h-20.2c-0.6 0-1.2-0.3-1.6-0.7-0.9-0.9-0.9-2.4 0-3.3 0.4-0.4 1-0.7 1.6-0.7zm20.2 1.6h-20.2q-0.3 0-0.5 0.2c-0.3 0.3-0.3 0.8 0 1.1q0.2 0.2 0.5 0.2h20.2q0.4 0 0.6-0.2c0.3-0.3 0.3-0.8 0-1.1q-0.2-0.2-0.6-0.2z"/><path  d="m25.4 56.9h20.2c0.7 0 1.3 0.2 1.7 0.6 0.9 1 0.9 2.4 0 3.3-0.4 0.5-1 0.7-1.7 0.7h-20.2c-0.6 0-1.2-0.2-1.6-0.7-0.9-0.9-0.9-2.3 0-3.3 0.4-0.4 1-0.6 1.6-0.6zm20.2 1.5h-20.2q-0.3 0-0.5 0.3c-0.3 0.3-0.3 0.7 0 1q0.2 0.3 0.5 0.3h20.2q0.4 0 0.6-0.3c0.3-0.3 0.3-0.7 0-1q-0.2-0.3-0.6-0.3z"/><path  d="m29 2.5c-0.4 0-0.8 0.4-0.8 0.8 0 0.4 0.4 0.8 0.8 0.8 1.9 0 3.7 0.5 4.9 1.5 0.8 0.7 1.4 1.8 1.6 3.1h-17c0.2-1.3 0.8-2.4 1.6-3.1 1.2-1 3-1.5 4.9-1.5 0.4 0 0.8-0.4 0.8-0.8 0-0.4-0.4-0.8-0.8-0.8-2.3 0-4.4 0.6-5.9 1.9-1.3 1.2-2.2 2.8-2.2 5.1 0 0.4 0.4 0.8 0.8 0.8h18.6c0.4 0 0.8-0.4 0.8-0.8 0-2.3-0.9-3.9-2.2-5.1-1.5-1.3-3.6-1.9-5.9-1.9z"/><path  d="m27 0.5c1.6 0 2.8 1.3 2.8 2.8 0 1.6-1.2 2.8-2.8 2.8-1.6 0-2.8-1.2-2.8-2.8 0-1.5 1.2-2.8 2.8-2.8zm0 1.6c-0.7 0-1.2 0.5-1.2 1.2 0 0.7 0.5 1.3 1.2 1.3 0.7 0 1.2-0.6 1.2-1.3 0-0.7-0.5-1.2-1.2-1.2z"/></svg>