<svg xmlns="http://www.w3.org/2000/svg" xmlns:xlink="http://www.w3.org/1999/xlink" version="1.1" x="0px" y="0px" viewBox="0 0 60 75" style="enable-background:new 0 0 60 60;" xml:space="preserve"><path d="M30,9C18.37,9,6,12.15,6,18c0,5.63,11.49,8.77,22.74,8.99v16.05C24.72,43.27,21,44.62,21,47c0,2.63,4.53,4,9,4s9-1.37,9-4  c0-2.48-4.04-3.84-8.26-3.99V26.99C42.15,26.86,54,23.72,54,18C54,12.15,41.63,9,30,9z M37,47c0,0.58-2.45,2-7,2s-7-1.42-7-2  c0-0.52,2.01-1.73,5.74-1.96v1.87h2v-1.9C34.81,45.16,37,46.45,37,47z M30,25c-12.96,0-22-3.69-22-7s9.04-7,22-7s22,3.69,22,7  S42.96,25,30,25z"/><text x="0" y="75" fill="#000000" font-size="5px" font-weight="bold" font-family="'Helvetica Neue', Helvetica, Arial-Unicode, Arial, Sans-serif">Created by Vectorstall</text><text x="0" y="80" fill="#000000" font-size="5px" font-weight="bold" font-family="'Helvetica Neue', Helvetica, Arial-Unicode, Arial, Sans-serif">from the Noun Project</text></svg>