<svg version="1.2" xmlns="http://www.w3.org/2000/svg" viewBox="0 0 311 440" width="311" height="440"><style></style><path  d="m229.1 439.7q-1 0-1.9-0.2l-220.9-55.2c-3.6-0.9-6.1-4.1-6.1-7.8v-368.2c0-2.4 1.1-4.8 3.1-6.3 1.9-1.5 4.5-2 6.9-1.4l220.9 55.2c3.5 0.9 6 4.1 6 7.7v368.2c0 2.5-1.1 4.8-3.1 6.3-1.4 1.1-3.1 1.7-4.9 1.7zm-212.9-69.5l204.9 51.3v-351.7l-204.9-51.2z"/><path  d="m302.8 384.5h-73.7c-4.4 0-8-3.6-8-8v-306.7l-214.8-53.7c-4-1-6.5-4.8-6-8.8 0.5-4 3.9-7 7.9-7h294.6c4.4 0 7.9 3.6 7.9 8v368.2c0 4.4-3.5 8-8 8zm-65.6-16h57.6v-352.2h-221.5l157.9 39.5c3.5 0.9 6 4.1 6 7.7z"/><path fill-rule="evenodd" d="m49 136.8l143.2 35.8-3.9 15.6-143.2-35.9z"/><path fill-rule="evenodd" d="m49 194.4l143.2 35.8-3.9 15.5-143.2-35.8z"/><path fill-rule="evenodd" d="m49 251.9l143.2 35.8-3.9 15.5-143.2-35.8z"/></svg>