<svg version="1.2" xmlns="http://www.w3.org/2000/svg" viewBox="0 0 110 110" width="110" height="110"><style></style><path fill-rule="evenodd" d="m85.2 110h-60.4c-4.8 0-8.8-3.7-9.3-8.7l-8.3-79.2h-3.1c-2.2 0-4.1-1.9-4.1-4.2 0-2.3 1.9-4.1 4.1-4.1h22.7q1.6 0 2.6-1.4l5.1-7.8c1.9-2.9 5-4.6 8.5-4.6h24c3.5 0 6.6 1.7 8.5 4.6l5.1 7.8c0.7 0.9 1.5 1.4 2.6 1.4h22.6c2.3 0 4.2 1.8 4.2 4.1 0 2.3-1.9 4.2-4.2 4.2h-3l-8.3 79.2c-0.5 5-4.5 8.7-9.3 8.7zm-46.8-96.3h33.2l-3-4.6c-0.4-0.5-0.9-0.8-1.6-0.8h-24c-0.7 0-1.2 0.3-1.6 0.8zm0.1 69.4v-42.5c0-2.3-1.8-4.1-4.1-4.1-2.3 0-4.2 1.8-4.2 4.1v42.5c0 2.3 1.9 4.2 4.2 4.2 2.3 0 4.1-1.9 4.1-4.2zm20.7 0v-42.5c0-2.3-1.9-4.1-4.2-4.1-2.3 0-4.1 1.8-4.1 4.1v42.5c0 2.3 1.8 4.2 4.1 4.2 2.3 0 4.2-1.9 4.2-4.2zm20.7 0v-42.5c0-2.3-1.9-4.1-4.2-4.1-2.3 0-4.1 1.8-4.1 4.1v42.5c0 2.3 1.8 4.2 4.1 4.2 2.3 0 4.2-1.9 4.2-4.2z"/></svg>