<svg xmlns="http://www.w3.org/2000/svg" version="1.1" viewBox="-5.0 -10.0 110.0 135.0">
 <path d="m58.566 17.633c-0.42969 0-0.78125 0.35156-0.78125 0.78125 0 0.42969 0.35156 0.78125 0.78125 0.78125h12.789c0.95703 0 1.8242 0.39063 2.457 1.0234s1.0234 1.5 1.0234 2.457v59.785c0 0.95703-0.39063 1.8242-1.0234 2.457-0.63281 0.63281-1.5 1.0234-2.457 1.0234h-42.707c-0.95703 0-1.8242-0.39062-2.457-1.0234-0.63281-0.63281-1.0234-1.5-1.0234-2.457v-59.785c0-0.95703 0.39062-1.8242 1.0234-2.457 0.63281-0.63281 1.5-1.0234 2.457-1.0234h12.789c0.42969 0 0.78125-0.35156 0.78125-0.78125 0-0.42969-0.35156-0.78125-0.78125-0.78125h-12.789c-1.3867 0-2.6484 0.56641-3.5625 1.4805-0.91406 0.91406-1.4805 2.1758-1.4805 3.5625v59.785c0 1.3867 0.56641 2.6484 1.4805 3.5625 0.91406 0.91406 2.1758 1.4805 3.5625 1.4805h42.707c1.3867 0 2.6484-0.56641 3.5625-1.4805 0.91406-0.91406 1.4805-2.1758 1.4805-3.5625v-59.785c0-1.3867-0.56641-2.6484-1.4805-3.5625-0.91406-0.91406-2.1758-1.4805-3.5625-1.4805z"/>
 <path d="m29.82 28.5h10.867c0.42969 0 0.78125 0.35156 0.78125 0.78125v9.3125c0 0.42969-0.35156 0.78125-0.78125 0.78125h-10.867c-0.42969 0-0.78125-0.35156-0.78125-0.78125v-9.3125c0-0.42969 0.35156-0.78125 0.78125-0.78125zm10.086 1.5625h-9.3047v7.75h9.3047z"/>
 <path d="m29.82 47.129h10.867c0.42969 0 0.78125 0.35156 0.78125 0.78125v9.3125c0 0.42969-0.35156 0.78125-0.78125 0.78125h-10.867c-0.42969 0-0.78125-0.35156-0.78125-0.78125v-9.3125c0-0.42969 0.35156-0.78125 0.78125-0.78125zm10.086 1.5625h-9.3047v7.75h9.3047z"/>
 <path d="m29.82 65.758h10.867c0.42969 0 0.78125 0.35156 0.78125 0.78125v9.3125c0 0.42969-0.35156 0.78125-0.78125 0.78125h-10.867c-0.42969 0-0.78125-0.35156-0.78125-0.78125v-9.3125c0-0.42969 0.35156-0.78125 0.78125-0.78125zm10.086 1.5625h-9.3047v7.75h9.3047z"/>
 <path d="m33.117 33.812c-0.21484-0.37109-0.69141-0.5-1.0664-0.28516-0.37109 0.21484-0.5 0.69141-0.28516 1.0664l0.83594 1.4492c0.22266 0.37891 0.68359 0.50781 1.0664 0.28516 1.4141-0.81641 3.4375-2.4609 4.8438-3.4688 0.35156-0.25 0.42969-0.73828 0.17969-1.0898-0.25-0.35156-0.73828-0.42969-1.0898-0.17969l-4.082 2.9258-0.40625-0.70312z"/>
 <path d="m33.117 52.441c-0.21484-0.37109-0.69141-0.5-1.0625-0.28516-0.37109 0.21484-0.5 0.69141-0.28516 1.0625l0.83594 1.4492c0.26953 0.36328 0.63672 0.53516 1.0664 0.28906 1.4141-0.81641 3.4375-2.4609 4.8438-3.4688 0.35156-0.25 0.42969-0.73828 0.17969-1.0898-0.25-0.35156-0.73828-0.42969-1.0898-0.17969l-4.082 2.9258z"/>
 <path d="m33.117 71.07c-0.21484-0.37109-0.69141-0.5-1.0664-0.28516-0.37109 0.21484-0.5 0.69141-0.28516 1.0664l0.83594 1.4492c0.22656 0.37891 0.67969 0.51172 1.0664 0.28516 1.4141-0.81641 3.4375-2.4609 4.8438-3.4688 0.35156-0.25 0.42969-0.73828 0.17969-1.0898-0.25-0.35156-0.73828-0.42969-1.0898-0.17969l-4.082 2.9258-0.40625-0.70313z"/>
 <path d="m48.449 31.605h20.18c0.64453 0 1.2266 0.26172 1.6484 0.68359 0.90625 0.90625 0.90625 2.3906 0 3.2969-0.42188 0.42187-1.0078 0.68359-1.6484 0.68359h-20.18c-0.64062 0-1.2266-0.26172-1.6484-0.68359-0.90625-0.90625-0.90625-2.3906 0-3.2969 0.42188-0.42187 1.0078-0.68359 1.6484-0.68359zm20.18 1.5625h-20.18c-0.21094 0-0.40234 0.085937-0.54297 0.22656-0.30078 0.30078-0.30078 0.78906 0 1.0898 0.14062 0.14062 0.33203 0.22656 0.54297 0.22656h20.18c0.21094 0 0.40234-0.085938 0.54297-0.22656 0.30078-0.30078 0.30078-0.78906 0-1.0898-0.14062-0.14062-0.33203-0.22656-0.54297-0.22656z"/>
 <path d="m48.449 50.234h20.18c0.64062 0 1.2266 0.26172 1.6484 0.68359 0.90625 0.90625 0.90625 2.3906 0 3.2969-0.42188 0.42188-1.0078 0.68359-1.6484 0.68359h-20.18c-0.64062 0-1.2266-0.26172-1.6484-0.68359-0.90625-0.90625-0.90625-2.3906 0-3.2969 0.42188-0.42188 1.0078-0.68359 1.6484-0.68359zm20.18 1.5625h-20.18c-0.21094 0-0.40234 0.085937-0.54297 0.22656-0.30078 0.30078-0.30078 0.78906 0 1.0898 0.14062 0.14062 0.33203 0.22656 0.54297 0.22656h20.18c0.21094 0 0.40234-0.085938 0.54297-0.22656 0.30078-0.30078 0.30078-0.78906 0-1.0898-0.14062-0.14063-0.33203-0.22656-0.54297-0.22656z"/>
 <path d="m48.449 68.863h20.18c0.64062 0 1.2266 0.26172 1.6484 0.68359 0.90625 0.90625 0.90625 2.3906 0 3.2969-0.42188 0.42188-1.0078 0.68359-1.6484 0.68359h-20.18c-0.64062 0-1.2266-0.26172-1.6484-0.68359-0.90625-0.90625-0.90625-2.3906 0-3.2969 0.42188-0.42188 1.0078-0.68359 1.6484-0.68359zm20.18 1.5625h-20.18c-0.21094 0-0.40234 0.085938-0.54297 0.22656-0.30078 0.30078-0.30078 0.78906 0 1.0898 0.14062 0.14062 0.33203 0.22656 0.54297 0.22656h20.18c0.21094 0 0.40234-0.085938 0.54297-0.22656 0.30078-0.30078 0.30078-0.78906 0-1.0898-0.14062-0.14062-0.33203-0.22656-0.54297-0.22656z"/>
 <path d="m52.027 14.527c-0.42969 0-0.78125 0.35156-0.78125 0.78125 0 0.42969 0.35156 0.78125 0.78125 0.78125 1.8984 0 3.6523 0.46875 4.8555 1.4922 0.85938 0.73438 1.4453 1.7734 1.6055 3.1523h-16.98c0.16016-1.3828 0.74609-2.4219 1.6055-3.1523 1.2031-1.0234 2.957-1.4922 4.8555-1.4922 0.42969 0 0.78125-0.35156 0.78125-0.78125 0-0.42969-0.35156-0.78125-0.78125-0.78125-2.2461 0-4.3633 0.58984-5.8672 1.8711-1.3516 1.1523-2.1992 2.8359-2.1992 5.1172 0 0.42969 0.35156 0.78125 0.78125 0.78125h18.629c0.42969 0 0.78125-0.35156 0.78125-0.78125 0-2.2812-0.84766-3.9648-2.1992-5.1172-1.5078-1.2852-3.6211-1.8711-5.8672-1.8711z"/>
 <path d="m50 12.5c1.5508 0 2.8086 1.2578 2.8086 2.8086 0 1.5508-1.2578 2.8086-2.8086 2.8086s-2.8086-1.2578-2.8086-2.8086c0-1.5508 1.2578-2.8086 2.8086-2.8086zm0 1.5625c-0.6875 0-1.2461 0.55859-1.2461 1.2461s0.55859 1.2461 1.2461 1.2461 1.2461-0.55859 1.2461-1.2461-0.55859-1.2461-1.2461-1.2461z"/>
<text x="0.0" y="117.5" font-size="5.0" font-weight="bold" font-family="Arbeit Regular, Helvetica, Arial-Unicode, Arial, Sans-serif" fill="#000000">Created by Jamil Akhtar</text><text x="0.0" y="122.5" font-size="5.0" font-weight="bold" font-family="Arbeit Regular, Helvetica, Arial-Unicode, Arial, Sans-serif" fill="#000000">from Noun Project</text></svg>