<svg xmlns="http://www.w3.org/2000/svg" viewBox="0 0 32 40" x="0px" y="0px"><title>meja dan kursi</title><g data-name="meja dan kursi"><path d="M20.846,28a.5.5,0,0,1-.5.5h-8.6a.5.5,0,1,1,0-1h3.8V12.139h-9.5a.5.5,0,0,1,0-1h20a.5.5,0,0,1,0,1h-9.5V27.5h3.8A.5.5,0,0,1,20.846,28Zm9.2-24.5a.5.5,0,0,0-.5.5V17.411H22.953a.5.5,0,0,0-.5.5v9.8a.5.5,0,0,0,1,0v-9.3h6.094V28a.5.5,0,0,0,1,0V4A.5.5,0,0,0,30.047,3.5Zm-21,13.911H2.453V4a.5.5,0,1,0-1,0V28a.5.5,0,0,0,1,0V18.411H8.547v9.3a.5.5,0,0,0,1,0v-9.8A.5.5,0,0,0,9.047,17.411Z"/></g><text x="0" y="47" fill="#000000" font-size="5px" font-weight="bold" font-family="'Helvetica Neue', Helvetica, Arial-Unicode, Arial, Sans-serif">Created by M.Khaerul Ihsan</text><text x="0" y="52" fill="#000000" font-size="5px" font-weight="bold" font-family="'Helvetica Neue', Helvetica, Arial-Unicode, Arial, Sans-serif">from the Noun Project</text></svg>